<?xml version="1.0" standalone="no"?>
<!DOCTYPE svg PUBLIC "-//W3C//DTD SVG 20010904//EN"
 "http://www.w3.org/TR/2001/REC-SVG-20010904/DTD/svg10.dtd">
<svg version="1.0" xmlns="http://www.w3.org/2000/svg"
 width="11811.000000pt" height="11811.000000pt" viewBox="0 0 11811.000000 11811.000000"
 preserveAspectRatio="xMidYMid meet">

<g transform="translate(0.000000,11811.000000) scale(0.100000,-0.100000)"
fill="currentColor" stroke="none">
<path d="M69600 116888 c-102 -29 -226 -71 -234 -79 -6 -5 -17 -9 -24 -9 -28
0 -337 -157 -492 -250 -286 -171 -500 -317 -885 -605 -337 -252 -364 -270
-735 -495 -43 -26 -178 -105 -209 -122 -20 -11 -88 -51 -151 -87 -127 -75
-181 -105 -255 -147 -27 -15 -66 -36 -85 -47 -108 -61 -374 -207 -377 -207 -2
0 -20 -10 -41 -23 -20 -13 -71 -42 -112 -64 -41 -22 -102 -55 -135 -73 -33
-18 -78 -43 -100 -55 -22 -12 -85 -46 -140 -75 -55 -29 -104 -56 -110 -60 -5
-4 -55 -31 -110 -60 -55 -29 -125 -67 -155 -83 -30 -17 -73 -40 -95 -52 -22
-12 -89 -48 -150 -80 -113 -59 -196 -104 -275 -147 -25 -14 -94 -51 -155 -83
-60 -32 -137 -72 -170 -90 -33 -18 -114 -60 -180 -95 -66 -34 -142 -75 -170
-90 -27 -15 -104 -55 -170 -90 -210 -110 -300 -157 -560 -295 -44 -24 -143
-75 -220 -115 -77 -40 -183 -95 -235 -123 -52 -27 -151 -79 -219 -114 -68 -36
-156 -82 -195 -102 -75 -40 -283 -148 -526 -273 -352 -182 -685 -354 -865
-448 -60 -32 -195 -101 -300 -155 -259 -133 -602 -311 -860 -445 -71 -37 -227
-117 -345 -177 -268 -137 -566 -290 -775 -398 -88 -45 -263 -135 -390 -200
-278 -142 -582 -298 -805 -413 -91 -46 -271 -138 -400 -204 -129 -66 -334
-171 -455 -233 -121 -62 -337 -172 -480 -245 -284 -145 -610 -311 -945 -483
-118 -60 -334 -170 -480 -245 -329 -167 -777 -395 -1105 -562 -137 -70 -398
-203 -580 -295 -181 -92 -442 -225 -580 -295 -327 -167 -719 -366 -1140 -580
-187 -95 -443 -225 -570 -290 -126 -65 -401 -204 -610 -310 -209 -106 -499
-253 -645 -328 -146 -74 -407 -207 -580 -294 -448 -228 -881 -448 -1205 -613
-419 -213 -865 -440 -1190 -605 -360 -183 -821 -417 -1195 -608 -268 -136
-410 -208 -1010 -514 -135 -69 -375 -192 -535 -273 -159 -81 -393 -200 -520
-265 -126 -65 -365 -186 -530 -270 -165 -84 -385 -196 -490 -250 -104 -54
-287 -147 -405 -207 -397 -203 -674 -345 -829 -425 -85 -44 -258 -133 -385
-198 -368 -187 -680 -346 -831 -425 -77 -40 -228 -118 -335 -173 -230 -117
-445 -228 -625 -322 -136 -71 -358 -185 -635 -328 -164 -84 -346 -178 -615
-317 -77 -40 -216 -112 -310 -160 -93 -48 -210 -109 -260 -135 -49 -26 -166
-87 -260 -135 -93 -48 -192 -100 -220 -115 -27 -15 -113 -60 -190 -100 -77
-40 -171 -89 -210 -110 -38 -20 -142 -75 -230 -120 -88 -46 -182 -95 -210
-110 -27 -15 -113 -60 -190 -100 -179 -93 -336 -175 -400 -210 -27 -15 -104
-55 -170 -90 -66 -35 -140 -74 -165 -88 -25 -13 -101 -54 -170 -90 -69 -35
-138 -72 -155 -82 -16 -10 -64 -35 -105 -57 -41 -22 -111 -59 -155 -83 -44
-24 -114 -61 -155 -83 -41 -22 -88 -47 -105 -57 -16 -10 -73 -40 -125 -67
-106 -56 -212 -113 -280 -151 -25 -13 -73 -40 -107 -58 -35 -19 -91 -49 -125
-68 -108 -58 -163 -88 -173 -96 -10 -8 -65 -38 -172 -96 -35 -19 -91 -49 -125
-68 -105 -56 -161 -88 -200 -113 -21 -12 -39 -23 -42 -23 -2 0 -70 -39 -152
-86 -82 -47 -174 -100 -204 -117 -30 -17 -101 -59 -157 -94 -57 -35 -105 -63
-107 -63 -2 0 -71 -41 -153 -91 -199 -123 -192 -119 -264 -162 -95 -56 -101
-60 -134 -83 -16 -11 -124 -80 -240 -153 -311 -195 -321 -202 -565 -365 -595
-396 -995 -678 -1580 -1116 -254 -190 -675 -517 -815 -631 -33 -27 -257 -210
-295 -241 -306 -247 -897 -756 -1224 -1053 -123 -112 -388 -356 -441 -406
-242 -228 -319 -303 -488 -469 -248 -244 -801 -801 -907 -915 -47 -49 -125
-133 -175 -185 -50 -52 -140 -149 -200 -215 -61 -66 -137 -149 -170 -185 -215
-231 -798 -898 -975 -1116 -28 -34 -240 -291 -322 -389 -83 -100 -267 -330
-368 -460 -69 -88 -127 -162 -130 -165 -12 -11 -299 -387 -454 -595 -53 -71
-102 -137 -109 -145 -14 -17 -313 -429 -428 -590 -371 -518 -861 -1246 -1183
-1757 -27 -43 -63 -100 -81 -128 -65 -100 -235 -376 -235 -381 0 -3 -8 -17
-19 -32 -50 -71 -521 -857 -521 -868 0 -3 -11 -21 -24 -42 -24 -39 -229 -393
-286 -497 -46 -82 -64 -115 -110 -196 -22 -39 -40 -72 -40 -74 0 -2 -15 -30
-34 -62 -45 -78 -115 -208 -303 -558 -67 -125 -117 -219 -254 -480 -145 -278
-537 -1067 -700 -1410 -130 -276 -147 -312 -179 -380 -18 -38 -47 -101 -65
-140 -36 -77 -51 -110 -120 -265 -26 -58 -57 -127 -70 -155 -12 -27 -33 -72
-45 -100 -12 -27 -38 -83 -56 -123 -19 -41 -34 -75 -34 -77 0 -5 -47 -110 -60
-136 -5 -9 -24 -54 -43 -100 -19 -46 -49 -115 -67 -154 -18 -38 -40 -90 -50
-115 -10 -25 -30 -72 -44 -105 -15 -33 -31 -70 -37 -82 -5 -13 -13 -33 -18
-45 -6 -13 -21 -49 -35 -81 -14 -32 -26 -60 -26 -63 0 -3 -7 -20 -15 -37 -8
-18 -23 -55 -34 -83 -11 -28 -29 -71 -39 -95 -21 -47 -178 -428 -244 -594 -22
-55 -44 -109 -48 -120 -5 -11 -22 -56 -40 -100 -17 -44 -35 -89 -40 -100 -9
-21 -52 -132 -77 -200 -24 -63 -30 -77 -46 -120 -9 -22 -35 -89 -58 -150 -22
-60 -45 -119 -50 -130 -5 -11 -21 -51 -35 -90 -14 -38 -41 -113 -61 -165 -19
-52 -39 -106 -43 -120 -5 -14 -20 -54 -33 -90 -14 -36 -37 -99 -52 -140 -15
-41 -30 -84 -35 -95 -25 -64 -41 -108 -64 -172 -43 -119 -75 -209 -100 -280
-14 -38 -34 -95 -45 -128 -11 -33 -38 -112 -61 -175 -56 -157 -394 -1172 -465
-1395 -31 -99 -60 -191 -65 -205 -5 -14 -28 -86 -50 -160 -23 -74 -53 -170
-66 -212 -35 -113 -68 -221 -98 -323 -15 -49 -33 -108 -40 -130 -8 -22 -18
-58 -25 -80 -6 -22 -38 -132 -72 -245 -58 -197 -82 -280 -99 -345 -4 -16 -24
-86 -44 -155 -39 -136 -51 -179 -73 -255 -7 -27 -18 -63 -23 -80 -5 -16 -28
-100 -51 -185 -23 -85 -64 -235 -91 -334 -46 -169 -64 -235 -158 -601 -21 -82
-50 -193 -65 -245 -14 -52 -28 -108 -31 -125 -4 -16 -13 -55 -20 -85 -8 -30
-19 -71 -24 -90 -4 -19 -15 -62 -24 -95 -16 -63 -99 -404 -142 -585 -13 -58
-31 -132 -39 -165 -8 -33 -25 -107 -39 -165 -14 -58 -32 -136 -41 -175 -8 -38
-20 -88 -25 -110 -8 -36 -15 -67 -49 -220 -5 -22 -16 -69 -25 -105 -8 -36 -27
-119 -41 -185 -14 -66 -33 -149 -41 -185 -8 -36 -19 -83 -23 -105 -5 -22 -17
-76 -26 -120 -9 -44 -20 -98 -25 -120 -12 -54 -36 -167 -50 -240 -7 -33 -18
-87 -25 -120 -17 -76 -44 -207 -56 -265 -4 -25 -15 -76 -23 -115 -8 -38 -22
-110 -31 -160 -9 -49 -20 -106 -25 -125 -5 -19 -14 -62 -20 -95 -6 -33 -17
-91 -25 -130 -8 -38 -33 -167 -55 -285 -22 -118 -44 -237 -50 -265 -14 -71
-37 -195 -55 -300 -9 -49 -20 -112 -25 -140 -18 -92 -41 -222 -75 -420 -24
-140 -34 -193 -50 -285 -8 -47 -21 -128 -30 -180 -8 -52 -19 -120 -25 -150 -9
-52 -29 -176 -50 -300 -12 -70 -35 -216 -55 -345 -8 -55 -20 -127 -25 -160 -9
-59 -30 -199 -51 -340 -6 -38 -17 -113 -25 -165 -45 -293 -99 -673 -115 -795
-4 -38 -15 -119 -24 -180 -8 -60 -20 -144 -25 -185 -5 -41 -17 -127 -25 -190
-22 -163 -44 -332 -55 -425 -5 -44 -16 -134 -25 -200 -9 -66 -20 -156 -25
-200 -5 -44 -17 -138 -25 -210 -9 -71 -20 -170 -25 -220 -6 -49 -14 -124 -20
-165 -9 -76 -17 -141 -45 -392 -31 -285 -46 -416 -55 -508 -5 -52 -16 -158
-24 -235 -8 -77 -20 -187 -26 -245 -6 -58 -15 -150 -21 -205 -5 -55 -14 -145
-19 -200 -5 -55 -16 -170 -25 -255 -23 -225 -49 -551 -64 -795 -6 -93 -16
-249 -23 -345 -18 -238 -18 -1586 -1 -1830 7 -96 18 -265 24 -375 6 -110 15
-256 20 -325 24 -313 29 -375 44 -530 9 -91 20 -210 25 -265 10 -117 33 -319
55 -495 8 -69 20 -161 25 -205 5 -44 17 -129 25 -190 9 -60 20 -139 25 -175 5
-36 16 -112 25 -170 9 -58 20 -136 25 -175 6 -38 15 -97 20 -130 6 -33 15 -85
20 -115 29 -173 42 -250 51 -295 5 -27 18 -102 29 -165 26 -153 62 -341 100
-530 18 -85 34 -166 37 -180 12 -63 35 -179 43 -215 5 -22 16 -74 25 -115 9
-41 20 -93 25 -115 5 -22 16 -74 25 -115 9 -41 20 -91 25 -110 5 -19 16 -69
25 -110 23 -107 89 -388 105 -450 13 -47 80 -316 90 -360 10 -48 105 -408 156
-595 34 -124 68 -248 110 -395 20 -69 40 -138 44 -155 5 -16 16 -55 25 -85 9
-30 22 -77 30 -105 7 -27 21 -72 29 -100 9 -27 23 -75 32 -105 9 -30 20 -66
24 -80 5 -14 16 -52 26 -85 9 -33 27 -91 40 -130 12 -38 41 -131 64 -205 23
-74 45 -146 50 -160 4 -14 45 -140 90 -280 45 -140 91 -280 102 -310 11 -30
24 -68 28 -85 5 -16 33 -102 64 -190 31 -88 77 -221 102 -295 25 -74 56 -165
70 -202 13 -38 35 -98 48 -135 13 -38 43 -120 66 -183 23 -63 53 -146 67 -185
14 -38 31 -83 38 -100 7 -16 20 -50 28 -75 8 -25 21 -58 27 -75 22 -54 27 -68
120 -315 51 -135 98 -258 105 -275 12 -30 43 -109 89 -227 22 -58 97 -246 116
-293 5 -11 22 -56 40 -100 17 -44 35 -89 40 -100 4 -11 63 -153 130 -315 155
-376 148 -361 181 -435 12 -27 52 -122 90 -210 109 -257 169 -396 200 -463 16
-35 29 -65 29 -67 0 -2 15 -36 34 -77 18 -40 43 -95 55 -123 64 -145 191 -428
211 -470 10 -22 32 -69 48 -105 70 -155 126 -275 199 -430 47 -97 100 -210
158 -335 18 -39 67 -142 110 -230 43 -88 104 -216 137 -285 83 -173 534 -1076
648 -1295 219 -423 334 -645 381 -732 21 -40 57 -107 79 -148 22 -41 58 -109
80 -150 22 -41 59 -110 81 -152 23 -43 49 -91 59 -108 9 -16 39 -70 65 -120
27 -49 79 -146 117 -214 37 -68 68 -124 68 -126 0 -1 22 -41 50 -89 27 -48 50
-89 50 -92 0 -2 10 -21 23 -42 13 -20 43 -73 67 -117 23 -44 71 -129 105 -190
34 -60 73 -128 85 -150 72 -128 161 -285 179 -315 11 -19 24 -42 28 -50 4 -8
24 -43 45 -78 21 -34 38 -64 38 -66 0 -5 142 -248 160 -276 6 -8 13 -22 17
-30 4 -8 43 -76 87 -150 44 -74 85 -144 90 -155 14 -25 93 -158 264 -444 74
-123 142 -238 152 -255 9 -17 66 -112 127 -211 61 -99 123 -202 139 -228 16
-27 36 -61 45 -75 34 -58 365 -591 404 -652 75 -117 80 -125 90 -142 11 -20
255 -405 338 -533 289 -450 443 -685 834 -1270 249 -374 491 -734 537 -800 45
-66 116 -168 157 -227 662 -958 1491 -2094 2096 -2873 150 -193 163 -210 338
-430 285 -359 480 -598 756 -925 622 -738 1396 -1506 2294 -2275 77 -66 142
-122 145 -125 3 -3 64 -55 135 -114 72 -60 153 -128 180 -151 72 -61 250 -204
565 -455 463 -369 1451 -1098 1955 -1443 39 -27 113 -78 165 -114 344 -239
850 -577 1340 -894 270 -175 768 -491 850 -539 19 -11 47 -28 61 -38 14 -9 61
-39 105 -65 43 -27 102 -62 129 -79 170 -106 494 -304 518 -317 16 -9 36 -21
45 -26 243 -146 502 -301 530 -317 21 -11 69 -39 107 -62 92 -56 265 -158 290
-172 20 -10 65 -36 379 -218 82 -47 150 -86 152 -86 3 0 21 -11 42 -23 20 -13
57 -35 82 -49 184 -103 290 -163 348 -196 37 -22 90 -52 117 -67 28 -15 124
-69 215 -120 91 -50 197 -109 235 -130 39 -20 75 -41 80 -45 6 -4 48 -28 95
-53 77 -40 117 -62 217 -118 18 -10 61 -34 95 -52 35 -19 90 -49 123 -67 33
-18 103 -55 155 -83 52 -27 104 -55 115 -62 24 -15 117 -64 250 -135 55 -29
137 -72 183 -96 114 -61 236 -126 339 -180 49 -26 115 -61 148 -79 33 -18 128
-67 210 -110 83 -43 182 -95 220 -115 425 -228 2009 -1020 2880 -1440 83 -40
204 -98 270 -130 116 -56 231 -110 400 -190 44 -21 143 -68 220 -105 132 -63
204 -97 335 -158 30 -14 100 -46 155 -72 142 -67 211 -99 285 -133 36 -16 99
-45 140 -65 72 -34 149 -69 255 -117 28 -12 77 -35 110 -50 33 -15 83 -38 110
-50 28 -12 97 -44 153 -71 57 -27 105 -49 107 -49 2 0 36 -15 77 -34 40 -18
93 -43 118 -54 115 -51 370 -166 415 -187 53 -24 137 -61 170 -74 11 -5 45
-20 75 -34 120 -56 169 -77 174 -77 2 0 37 -15 78 -34 40 -18 132 -59 203 -90
72 -31 144 -63 160 -70 91 -42 146 -66 150 -66 2 0 39 -16 82 -36 43 -20 98
-44 123 -54 25 -10 72 -30 105 -44 33 -15 69 -31 80 -36 11 -4 41 -17 67 -29
27 -12 87 -37 134 -57 48 -20 94 -39 103 -44 14 -8 64 -28 116 -49 25 -10 55
-23 126 -55 30 -13 231 -97 445 -186 214 -89 405 -168 424 -176 19 -9 44 -19
55 -24 11 -4 83 -34 160 -65 77 -31 145 -62 151 -69 10 -10 21 -73 44 -246 5
-36 16 -114 25 -175 9 -60 20 -139 25 -175 5 -36 18 -130 29 -210 11 -80 28
-194 36 -255 9 -60 20 -135 25 -165 5 -30 12 -80 15 -110 3 -30 10 -80 15
-110 9 -50 37 -248 61 -420 25 -188 39 -285 54 -385 9 -60 20 -139 25 -175 9
-71 42 -307 66 -465 8 -55 19 -131 24 -170 5 -38 15 -104 21 -145 6 -41 15
-104 19 -140 5 -36 16 -114 25 -175 9 -60 20 -139 25 -175 7 -56 58 -416 89
-635 6 -38 18 -119 26 -180 9 -60 20 -137 25 -170 11 -65 27 -183 40 -285 10
-81 76 -542 89 -630 6 -36 17 -117 26 -180 9 -63 20 -140 25 -170 5 -30 12
-80 15 -110 3 -30 10 -80 15 -110 11 -63 42 -282 89 -630 10 -71 42 -294 66
-460 9 -58 20 -136 25 -175 5 -38 17 -117 25 -175 8 -58 20 -139 26 -180 6
-41 15 -104 20 -140 6 -36 14 -99 19 -140 9 -69 24 -181 65 -460 9 -58 20
-136 25 -175 5 -38 17 -117 25 -175 8 -58 20 -139 26 -180 6 -41 15 -104 20
-140 6 -36 14 -99 19 -140 9 -69 24 -181 65 -460 9 -58 20 -136 25 -175 5 -38
17 -117 25 -175 8 -58 20 -136 25 -175 5 -38 15 -104 21 -145 6 -41 15 -104
19 -140 5 -36 16 -114 25 -175 9 -60 20 -139 25 -175 5 -36 18 -130 29 -210
11 -80 28 -194 36 -255 9 -60 20 -137 25 -170 13 -79 29 -202 40 -294 5 -40
11 -76 14 -78 3 -3 17 4 33 14 15 11 64 40 108 65 44 25 120 68 169 96 49 29
90 52 91 52 1 0 40 22 87 49 46 26 111 63 144 81 32 18 73 41 89 51 17 10 46
26 65 37 39 21 79 44 190 107 86 49 121 68 205 115 33 18 74 41 90 51 17 10
46 26 65 37 39 22 80 44 193 109 42 24 99 55 125 70 97 54 121 67 262 148 80
45 161 91 180 102 53 30 150 83 200 111 25 14 50 28 55 32 6 4 37 22 70 40 74
41 109 60 205 115 96 55 131 74 205 115 33 18 65 36 70 40 6 4 89 52 185 105
96 54 191 107 210 118 19 10 80 45 135 77 152 87 406 230 410 230 2 0 36 19
77 43 40 24 98 57 128 74 85 47 301 168 343 192 21 12 70 39 108 61 39 22 73
40 75 40 2 0 22 11 44 25 22 14 135 78 252 144 117 65 229 127 248 138 19 11
62 35 95 53 33 18 65 36 70 40 6 4 37 22 70 40 111 61 187 104 295 165 88 50
124 70 205 115 33 18 77 44 97 57 21 12 39 23 42 23 2 0 57 30 122 66 66 37
139 78 164 92 25 14 83 47 129 74 46 26 85 48 86 48 2 0 32 16 67 36 34 20
162 91 283 159 121 67 243 135 270 150 28 16 66 37 85 48 19 11 89 50 155 87
66 37 136 76 155 87 45 25 142 79 200 111 25 14 50 28 55 32 6 4 37 22 70 40
33 18 74 41 92 51 18 10 63 35 100 55 37 20 93 51 123 69 30 17 84 48 120 67
36 20 92 50 125 68 33 18 80 44 105 58 25 14 50 28 55 32 6 4 37 22 70 40 33
18 74 41 90 50 17 9 57 32 90 50 102 57 149 83 185 103 19 11 114 63 210 117
96 53 191 106 210 117 19 11 62 35 95 53 114 63 150 83 185 103 19 11 154 86
300 167 146 81 281 156 300 167 19 11 62 35 95 53 33 18 74 41 90 50 17 9 57
32 90 50 33 18 74 41 90 50 17 9 57 32 90 50 33 18 94 52 135 75 41 23 106 58
143 79 37 20 82 45 100 55 18 10 59 33 92 51 112 62 150 83 185 103 19 11 114
64 210 117 96 53 195 108 220 122 25 14 151 84 280 155 129 72 258 143 285
158 82 46 107 60 170 95 33 18 74 41 92 51 18 10 63 35 100 55 37 20 192 105
343 189 151 83 306 168 343 189 37 20 82 45 100 55 18 10 59 33 92 51 33 18
74 41 90 50 17 9 56 31 88 48 146 81 175 97 217 120 25 14 59 33 77 43 18 10
63 35 100 55 37 21 192 106 343 189 151 84 304 168 340 187 60 33 112 62 197
109 18 10 63 35 100 55 37 20 91 49 118 64 28 15 77 42 110 60 55 31 104 58
180 100 17 9 71 38 120 65 50 26 95 51 100 55 11 8 69 40 175 98 36 19 88 47
115 62 28 15 77 42 110 60 33 18 74 41 92 51 18 10 62 34 98 54 36 19 94 51
130 70 36 20 82 45 103 57 20 11 71 39 112 61 41 22 109 59 150 82 41 23 116
64 165 90 50 26 104 56 120 65 17 10 61 34 98 54 37 20 84 46 105 58 20 11 71
39 112 61 41 22 95 51 120 65 25 14 99 54 165 90 66 35 138 74 160 87 94 52
154 85 220 120 79 43 283 153 365 198 30 16 60 33 65 37 6 4 48 27 95 51 47
24 105 55 130 70 25 14 88 49 140 76 52 28 122 65 155 83 73 40 171 93 245
133 30 16 82 44 115 62 33 18 80 44 105 57 25 14 77 42 115 63 39 20 93 50
120 65 28 15 86 47 130 70 44 23 132 71 195 105 63 34 156 84 205 110 50 26
104 56 120 65 17 10 64 35 105 57 78 42 181 97 285 153 33 18 98 53 145 78 83
43 159 85 250 134 25 14 90 49 145 78 55 29 123 65 150 80 69 37 183 98 290
155 50 27 110 59 135 73 25 13 88 47 140 74 52 28 118 63 145 78 28 15 95 51
150 80 55 29 123 65 150 80 28 15 104 56 170 90 66 35 147 77 180 95 33 18
110 58 170 90 61 32 133 70 160 85 28 15 100 53 160 85 61 31 142 74 180 95
39 21 129 68 200 105 268 139 381 198 410 215 17 10 102 55 190 100 88 45 192
99 230 120 39 21 147 77 240 125 168 87 306 158 500 260 55 29 217 112 360
185 143 73 334 171 425 218 576 298 2077 1042 2492 1235 42 20 116 55 165 78
139 65 224 105 278 129 28 13 77 35 110 50 59 27 107 48 215 97 30 13 78 35
105 48 114 52 166 75 170 75 2 0 36 15 77 34 40 18 96 44 123 56 28 12 84 38
125 57 41 19 93 43 115 53 56 25 165 75 265 122 47 22 117 55 155 73 85 40
270 128 425 202 176 85 905 449 1085 543 345 179 392 203 440 230 28 15 97 52
155 82 108 57 187 100 275 148 28 15 86 47 130 70 44 23 85 46 90 50 6 4 44
25 85 47 77 42 102 55 230 128 96 55 131 74 205 115 33 18 65 36 70 40 6 4 33
20 60 35 71 39 232 132 430 248 94 55 185 108 202 118 44 25 477 286 645 390
203 124 646 402 778 487 63 41 138 90 165 107 243 157 909 603 1224 820 247
171 959 684 1261 909 439 328 1421 1094 1526 1191 6 5 53 44 104 85 214 174
858 717 1000 845 25 22 77 67 115 101 177 154 274 241 325 288 30 28 75 69
100 90 25 22 88 79 140 126 52 48 122 111 156 141 98 87 439 404 569 530 66
63 175 167 242 230 169 159 1140 1134 1359 1364 369 389 759 812 999 1085 61
68 133 149 160 180 28 30 96 107 150 170 55 63 102 117 105 120 7 6 343 400
385 451 17 20 73 87 125 150 912 1089 1777 2232 2599 3434 118 174 423 631
541 813 69 106 149 230 178 275 108 165 524 834 564 906 11 20 57 97 103 171
99 162 228 381 279 470 20 36 41 72 46 80 29 47 90 151 90 154 0 2 47 84 103
182 92 158 155 272 260 464 16 30 33 60 37 65 4 6 25 44 47 85 75 140 105 195
128 235 12 22 44 81 70 130 26 50 62 117 80 150 18 33 63 119 100 190 37 72
92 177 122 234 119 224 673 1341 673 1355 0 3 29 64 64 138 73 153 124 261
156 333 12 28 39 86 60 130 21 44 59 127 85 185 26 58 60 133 76 168 16 35 29
65 29 68 0 2 16 38 35 80 19 41 35 77 35 79 0 2 16 38 36 81 19 42 51 115 71
163 31 76 46 110 98 226 28 64 255 607 255 611 0 3 8 24 19 47 10 23 71 175
135 337 64 162 121 304 126 315 9 23 56 144 75 195 22 58 67 174 76 195 11 25
58 152 68 185 5 14 17 48 29 75 11 28 32 82 45 120 14 39 44 122 67 185 23 63
53 147 67 185 13 39 28 79 33 90 5 11 18 47 29 80 11 33 38 112 61 175 97 271
319 933 414 1235 32 99 61 191 66 205 17 50 117 377 157 510 8 30 20 66 24 80
5 14 38 126 74 250 36 124 71 245 79 270 7 25 19 63 25 85 6 22 27 96 47 165
20 69 42 150 50 180 17 62 62 230 75 275 4 17 12 46 17 65 6 19 24 89 42 155
18 66 36 136 41 155 8 34 201 801 219 870 9 32 39 159 76 320 8 36 19 81 24
100 5 19 23 98 40 175 17 77 42 190 56 250 31 138 39 173 58 260 23 107 46
216 56 260 17 78 39 180 43 205 6 33 44 222 56 280 6 25 17 81 26 125 8 44 31
161 51 260 19 99 40 205 45 235 5 30 15 91 24 135 22 115 64 351 75 415 5 30
13 78 18 105 6 28 15 79 20 115 15 92 41 246 52 305 5 28 16 95 24 150 63 402
74 472 106 685 25 167 41 279 65 455 14 105 32 240 40 300 22 159 54 414 74
585 6 47 17 141 25 210 8 69 18 152 21 185 3 33 13 119 21 190 8 72 19 173 24
225 5 52 16 165 25 250 9 85 20 205 25 265 6 61 12 126 15 145 3 19 10 94 15
165 6 72 17 209 25 305 9 96 20 234 25 305 31 429 41 587 50 730 5 88 13 237
19 330 26 432 52 1055 72 1730 13 441 7 2172 -9 2600 -18 451 -36 809 -63
1220 -6 88 -14 223 -19 300 -5 77 -16 221 -24 320 -9 99 -18 216 -21 260 -3
44 -13 145 -21 225 -7 80 -19 195 -24 255 -16 166 -39 390 -50 485 -50 432
-76 649 -105 865 -9 61 -20 144 -25 185 -14 108 -48 340 -65 450 -8 52 -17
113 -21 135 -31 214 -68 446 -94 590 -4 28 -16 95 -25 150 -9 55 -20 123 -25
150 -6 28 -17 91 -26 140 -8 50 -22 122 -29 160 -7 39 -19 99 -25 135 -11 59
-18 100 -51 270 -6 30 -17 84 -24 120 -8 36 -16 76 -18 90 -7 39 -76 380 -87
425 -5 22 -16 74 -25 115 -29 136 -33 154 -49 220 -8 36 -27 119 -41 185 -29
131 -33 151 -100 430 -26 105 -60 246 -76 315 -17 69 -32 134 -35 145 -2 11
-18 72 -35 135 -39 143 -78 294 -89 340 -15 64 -58 224 -90 335 -17 61 -38
135 -46 165 -8 30 -22 80 -30 110 -21 70 -38 133 -54 190 -7 25 -18 63 -25 85
-7 22 -20 67 -30 100 -9 33 -20 71 -25 85 -4 14 -16 52 -25 85 -10 33 -28 94
-40 135 -13 41 -33 109 -45 150 -12 41 -35 116 -51 165 -16 50 -33 104 -38
120 -117 370 -278 861 -351 1065 -23 63 -50 142 -61 175 -11 33 -31 90 -45
128 -13 37 -35 97 -48 135 -60 166 -109 300 -122 329 -8 17 -14 36 -14 42 0 6
-4 19 -9 29 -6 9 -28 69 -51 132 -23 63 -45 124 -50 135 -4 11 -15 40 -25 65
-10 25 -21 54 -26 65 -7 16 -77 195 -169 435 -24 63 -119 299 -135 335 -8 17
-63 150 -124 297 -60 146 -119 286 -129 310 -11 24 -30 68 -42 98 -23 56 -44
105 -86 198 -13 29 -24 54 -24 57 0 2 -13 32 -29 67 -16 35 -50 110 -76 168
-131 293 -221 490 -273 600 -27 58 -61 130 -75 160 -124 271 -544 1124 -697
1415 -26 50 -80 153 -120 230 -40 77 -84 160 -98 185 -14 25 -45 83 -70 130
-24 47 -55 103 -67 125 -12 22 -44 81 -70 130 -27 50 -65 121 -87 158 -21 38
-38 71 -38 73 0 2 -18 33 -40 69 -22 36 -40 68 -40 70 0 3 -10 22 -23 43 -13
20 -42 71 -64 112 -22 41 -64 115 -92 164 -28 49 -51 90 -51 91 0 2 -40 71
-90 155 -49 84 -90 153 -90 155 0 9 -392 662 -543 905 -18 30 -69 113 -113
183 -43 71 -86 140 -94 153 -119 192 -549 857 -650 1004 -20 30 -108 161 -195
290 -87 129 -177 261 -199 292 -23 32 -81 117 -131 189 -358 520 -1017 1419
-1402 1914 -217 278 -255 327 -387 494 -316 399 -477 597 -825 1015 -204 244
-714 842 -730 856 -3 3 -69 77 -146 165 -77 88 -142 162 -145 165 -3 3 -82 91
-175 195 -93 105 -188 210 -211 235 -23 25 -129 140 -235 256 -676 738 -1662
1747 -2369 2425 -402 385 -448 429 -540 514 -94 87 -210 196 -310 289 -59 56
-220 203 -345 316 -27 25 -83 77 -125 115 -166 154 -939 839 -1066 945 -23 19
-104 89 -181 155 -279 242 -1041 879 -1341 1121 -15 12 -104 84 -198 160 -306
248 -943 750 -1089 858 -22 17 -42 33 -45 36 -5 5 -274 212 -464 355 -44 33
-139 104 -210 158 -247 186 -735 547 -971 717 -112 81 -406 292 -460 330 -941
665 -1246 874 -2150 1471 -460 304 -503 333 -868 566 -76 48 -149 95 -162 103
-58 37 -677 426 -693 435 -45 26 -670 410 -694 426 -15 11 -29 19 -32 19 -2 0
-70 41 -150 90 -80 50 -148 90 -150 90 -2 0 -59 34 -126 75 -67 41 -124 75
-126 75 -2 0 -45 25 -96 56 -51 31 -109 66 -128 77 -19 10 -98 56 -175 101
-77 46 -182 107 -233 137 -51 30 -105 61 -120 70 -15 9 -54 31 -87 49 -33 18
-77 44 -97 57 -21 12 -40 23 -43 23 -3 0 -23 11 -44 24 -22 14 -115 67 -207
119 -93 52 -218 123 -279 157 -170 97 -338 190 -342 190 -2 0 -20 10 -41 23
-34 22 -92 54 -262 145 -36 19 -96 53 -135 75 -38 22 -108 60 -155 85 -47 25
-128 68 -180 97 -52 29 -131 72 -175 95 -44 24 -107 57 -140 75 -131 71 -215
115 -320 170 -60 32 -132 70 -160 85 -27 15 -144 76 -260 135 -115 59 -293
150 -395 203 -379 195 -1305 655 -1585 787 -49 23 -146 70 -215 103 -69 33
-156 74 -195 92 -38 18 -126 59 -194 91 -67 33 -125 59 -127 59 -2 0 -50 22
-106 49 -143 68 -279 131 -282 131 -2 0 -52 23 -110 50 -58 28 -109 50 -111
50 -3 0 -42 17 -88 39 -128 60 -197 91 -202 91 -2 0 -36 15 -77 34 -40 18
-131 59 -203 90 -71 31 -137 60 -145 65 -8 4 -67 30 -130 56 -63 26 -119 52
-125 56 -5 5 -15 9 -21 9 -7 0 -45 15 -86 34 -40 18 -179 77 -308 131 -129 53
-244 101 -255 105 -66 29 -381 155 -495 199 -74 28 -143 56 -152 61 -10 6 -24
10 -33 10 -34 0 -33 -27 -55 1255 -5 303 -16 899 -25 1325 -8 426 -19 1043
-25 1370 -5 327 -12 674 -15 770 -3 96 -10 436 -15 755 -22 1290 -31 1794 -60
3260 -16 780 -30 1525 -40 2150 -14 856 -20 1007 -38 1028 -32 37 -72 47 -176
46 -56 -1 -117 -6 -136 -11z m-5736 -26249 l26 -20 0 -212 c0 -117 5 -376 10
-577 5 -201 14 -651 20 -1000 5 -349 12 -705 15 -790 3 -85 7 -319 10 -520 5
-345 11 -694 35 -1910 6 -283 15 -774 21 -1090 7 -424 13 -578 22 -587 7 -6
50 -26 97 -43 47 -18 101 -39 120 -47 53 -23 55 -24 344 -143 148 -62 277
-116 285 -120 26 -13 131 -60 136 -60 2 0 36 -15 77 -34 40 -18 111 -50 158
-71 144 -63 284 -128 448 -206 56 -27 104 -49 106 -49 5 0 208 -97 456 -217
202 -98 639 -317 810 -406 254 -131 538 -280 605 -317 28 -15 86 -47 130 -70
44 -24 111 -60 148 -82 38 -21 70 -38 72 -38 2 0 30 -15 62 -34 32 -18 89 -50
126 -70 37 -20 82 -45 100 -55 18 -10 59 -33 92 -51 33 -18 77 -44 97 -57 21
-12 39 -23 42 -23 2 0 54 -29 116 -65 62 -36 114 -65 117 -65 2 0 29 -16 59
-35 30 -19 56 -35 59 -35 2 0 45 -25 95 -55 50 -30 93 -55 95 -55 3 0 44 -24
92 -54 49 -29 158 -95 243 -146 85 -50 162 -96 170 -101 68 -40 577 -355 700
-432 338 -213 421 -267 925 -604 466 -311 476 -317 795 -543 113 -80 216 -153
230 -163 14 -9 48 -34 76 -55 29 -20 132 -95 230 -167 559 -405 1356 -1023
1829 -1419 171 -143 486 -409 577 -487 171 -147 559 -491 658 -585 36 -33 117
-108 180 -165 269 -245 525 -492 985 -953 654 -655 1038 -1067 1584 -1705 73
-86 143 -167 155 -181 34 -40 164 -197 215 -259 25 -31 100 -124 166 -205 321
-396 718 -921 990 -1306 87 -124 179 -254 204 -290 94 -132 297 -436 453 -678
201 -311 306 -482 615 -1000 23 -40 43 -75 43 -78 0 -2 11 -22 24 -43 46 -72
267 -473 418 -756 73 -137 400 -792 450 -900 20 -44 57 -123 81 -175 67 -144
107 -231 107 -235 0 -2 15 -36 34 -77 18 -40 49 -109 69 -153 51 -115 243
-576 279 -670 17 -44 36 -93 43 -110 12 -30 53 -134 82 -210 9 -22 19 -49 23
-60 5 -11 27 -72 50 -135 23 -63 46 -126 52 -140 5 -14 18 -50 29 -80 10 -30
32 -93 49 -140 38 -105 174 -508 205 -610 58 -185 108 -347 116 -375 4 -16 15
-52 23 -80 26 -87 47 -159 56 -190 4 -16 15 -57 25 -90 9 -33 20 -73 25 -90 4
-16 15 -57 25 -90 48 -172 172 -665 212 -845 8 -36 26 -114 39 -175 14 -60 29
-128 33 -150 109 -539 114 -565 145 -740 8 -44 20 -111 27 -150 6 -38 17 -104
24 -145 7 -41 18 -111 25 -155 6 -44 15 -105 21 -135 5 -30 13 -86 18 -125 5
-38 17 -122 26 -185 17 -123 27 -203 51 -400 26 -222 61 -562 74 -735 5 -66
14 -176 20 -245 73 -906 81 -2214 20 -3310 -16 -292 -53 -798 -71 -980 -6 -58
-15 -154 -20 -215 -8 -99 -19 -205 -49 -490 -5 -49 -17 -144 -25 -210 -9 -66
-20 -156 -25 -200 -5 -44 -13 -114 -19 -155 -6 -41 -16 -111 -21 -155 -14
-104 -38 -274 -50 -350 -6 -33 -16 -103 -25 -155 -8 -52 -24 -151 -35 -220
-12 -69 -26 -154 -31 -188 -5 -35 -13 -83 -18 -105 -5 -23 -14 -69 -20 -102
-31 -174 -49 -266 -104 -540 -92 -459 -93 -464 -106 -520 -6 -22 -24 -103 -41
-180 -49 -219 -108 -464 -180 -740 -23 -88 -46 -176 -50 -195 -5 -19 -13 -51
-18 -70 -5 -19 -19 -71 -31 -115 -12 -44 -29 -105 -37 -135 -20 -69 -38 -132
-54 -190 -7 -25 -16 -56 -20 -70 -5 -14 -16 -52 -25 -85 -9 -33 -23 -78 -30
-100 -7 -22 -20 -67 -30 -100 -9 -33 -20 -71 -25 -85 -5 -14 -27 -86 -50 -160
-23 -74 -52 -166 -65 -205 -12 -38 -42 -128 -64 -200 -23 -71 -46 -139 -51
-150 -5 -11 -29 -81 -54 -155 -51 -151 -81 -238 -101 -290 -7 -19 -25 -66 -38
-105 -34 -96 -156 -423 -171 -460 -7 -16 -19 -46 -26 -65 -6 -19 -16 -44 -20
-55 -5 -11 -23 -56 -40 -100 -36 -92 -128 -321 -140 -350 -5 -11 -20 -46 -34
-78 -14 -32 -26 -60 -26 -63 0 -3 -13 -35 -30 -71 -16 -35 -30 -70 -30 -77 0
-6 -4 -16 -8 -22 -5 -5 -19 -34 -32 -64 -39 -95 -170 -390 -221 -498 -27 -57
-49 -105 -49 -107 0 -2 -27 -61 -61 -132 -33 -70 -77 -162 -96 -203 -109 -230
-391 -785 -498 -980 -29 -52 -76 -140 -105 -195 -29 -55 -98 -179 -153 -275
-55 -96 -110 -193 -122 -215 -13 -22 -57 -98 -99 -169 -42 -70 -76 -130 -76
-132 0 -3 -344 -562 -426 -690 -53 -83 -476 -717 -527 -789 -23 -33 -91 -130
-151 -215 -288 -408 -761 -1028 -1055 -1380 -34 -41 -90 -109 -124 -150 -174
-210 -529 -617 -671 -770 -28 -30 -98 -107 -156 -170 -186 -203 -277 -298
-674 -695 -385 -385 -472 -470 -715 -695 -68 -63 -129 -120 -135 -125 -33 -31
-295 -265 -330 -295 -23 -19 -77 -66 -121 -106 -313 -279 -916 -766 -1405
-1135 -340 -256 -1066 -769 -1245 -879 -13 -8 -93 -60 -177 -114 -84 -55 -191
-124 -238 -154 -47 -30 -97 -63 -112 -73 -15 -11 -30 -19 -33 -19 -4 0 -21
-10 -38 -23 -18 -12 -41 -27 -52 -34 -386 -233 -636 -383 -639 -383 -2 0 -48
-26 -103 -58 -54 -32 -118 -70 -143 -84 -25 -14 -101 -56 -170 -95 -69 -38
-159 -88 -200 -110 -41 -22 -95 -52 -120 -65 -287 -158 -954 -495 -1265 -638
-38 -18 -117 -55 -174 -81 -57 -27 -105 -49 -107 -49 -3 0 -44 -18 -92 -41
-48 -22 -100 -46 -117 -54 -16 -8 -59 -27 -95 -43 -36 -17 -94 -43 -130 -60
-36 -16 -87 -40 -115 -52 -333 -150 -1071 -513 -1630 -800 -428 -220 -727
-374 -890 -460 -49 -26 -143 -75 -207 -109 -65 -33 -171 -89 -235 -122 -238
-125 -310 -162 -380 -200 -40 -22 -108 -58 -150 -80 -43 -23 -100 -54 -128
-69 -27 -15 -104 -56 -170 -90 -66 -35 -148 -78 -182 -96 -99 -53 -184 -99
-233 -126 -25 -14 -90 -49 -145 -78 -55 -29 -120 -64 -145 -78 -82 -45 -164
-88 -275 -147 -60 -32 -130 -69 -155 -83 -25 -13 -73 -40 -107 -58 -35 -19
-91 -49 -125 -68 -35 -18 -83 -45 -108 -58 -25 -14 -85 -47 -135 -73 -49 -26
-112 -60 -140 -75 -27 -15 -81 -44 -120 -65 -38 -21 -83 -45 -100 -55 -16 -10
-61 -34 -100 -55 -38 -21 -92 -50 -120 -65 -27 -15 -86 -46 -130 -70 -83 -45
-482 -262 -570 -310 -27 -15 -115 -64 -195 -107 -80 -44 -172 -95 -205 -113
-87 -47 -185 -101 -220 -120 -16 -9 -57 -32 -90 -50 -33 -18 -82 -45 -110 -60
-27 -15 -81 -44 -118 -64 -37 -20 -82 -45 -100 -55 -62 -34 -142 -79 -212
-116 -38 -20 -103 -56 -145 -80 -99 -56 -133 -75 -205 -115 -33 -18 -82 -45
-110 -60 -27 -15 -79 -43 -115 -63 -36 -19 -114 -63 -174 -96 -60 -34 -110
-61 -112 -61 -3 0 -21 -10 -42 -23 -20 -13 -75 -44 -122 -69 -115 -62 -190
-103 -285 -156 -44 -25 -105 -59 -135 -75 -30 -16 -81 -45 -113 -63 -32 -19
-60 -34 -63 -34 -2 0 -21 -10 -42 -23 -20 -13 -71 -42 -112 -64 -41 -22 -93
-51 -115 -63 -106 -60 -386 -216 -435 -243 -47 -26 -163 -89 -265 -147 -29
-16 -112 -62 -185 -103 -19 -10 -48 -27 -65 -37 -16 -9 -55 -31 -85 -47 -30
-17 -133 -74 -229 -127 -96 -53 -176 -96 -178 -96 -2 0 -20 -11 -41 -23 -20
-13 -57 -35 -82 -49 -113 -62 -167 -93 -195 -108 -16 -9 -57 -32 -90 -50 -33
-18 -73 -41 -90 -50 -16 -9 -57 -32 -90 -50 -85 -47 -382 -213 -430 -240 -22
-12 -114 -64 -205 -115 -91 -51 -181 -101 -200 -112 -19 -11 -56 -32 -82 -46
-26 -15 -83 -46 -125 -70 -80 -46 -112 -64 -195 -110 -26 -15 -83 -46 -125
-70 -111 -63 -186 -105 -298 -167 -33 -18 -64 -36 -70 -40 -11 -8 -71 -42
-185 -103 -41 -22 -92 -51 -112 -64 -21 -13 -39 -23 -41 -23 -2 0 -42 -22 -89
-49 -46 -26 -111 -63 -144 -81 -86 -48 -120 -67 -204 -115 -88 -50 -124 -70
-205 -115 -33 -18 -77 -44 -97 -57 -21 -12 -39 -23 -41 -23 -2 0 -42 -22 -89
-49 -46 -26 -111 -63 -144 -81 -86 -48 -120 -67 -204 -115 -129 -73 -382 -215
-450 -253 -25 -14 -49 -28 -55 -32 -5 -4 -30 -18 -55 -32 -95 -52 -167 -93
-248 -139 -47 -27 -86 -49 -87 -49 -1 0 -53 -29 -115 -65 -62 -36 -114 -65
-116 -65 -3 0 -23 -12 -45 -26 -50 -31 -69 -26 -69 19 0 19 -4 58 -10 88 -5
30 -16 106 -25 169 -9 63 -20 142 -25 175 -5 33 -12 80 -15 105 -3 25 -10 74
-16 110 -15 97 -80 556 -90 630 -4 36 -15 115 -24 175 -8 61 -19 139 -24 175
-5 36 -18 128 -29 205 -48 327 -64 444 -73 510 -5 39 -11 81 -14 95 -3 14 -9
59 -14 100 -10 81 -61 440 -116 820 -8 58 -20 137 -25 175 -5 39 -16 115 -24
170 -8 55 -27 186 -41 290 -14 105 -33 235 -41 290 -28 193 -33 231 -49 345
-9 63 -20 142 -25 175 -5 33 -16 110 -25 170 -8 61 -25 175 -36 255 -11 80
-24 174 -29 210 -5 36 -16 112 -24 170 -9 58 -20 139 -25 180 -5 41 -14 104
-20 140 -5 36 -14 99 -20 140 -23 165 -43 300 -56 390 -8 52 -17 121 -21 153
-6 55 -31 97 -57 97 -5 0 -25 7 -45 16 -46 20 -26 12 -347 145 -249 103 -308
127 -390 164 -16 7 -46 20 -66 28 -19 9 -73 32 -119 52 -91 39 -121 52 -190
83 -25 11 -74 32 -110 47 -72 30 -187 80 -298 131 -41 19 -75 34 -77 34 -2 0
-36 15 -77 34 -40 18 -95 44 -123 56 -27 12 -83 38 -123 56 -41 19 -75 34 -77
34 -4 0 -84 37 -357 164 -40 18 -95 44 -123 56 -27 12 -86 39 -130 60 -44 21
-111 52 -148 69 -38 18 -115 53 -170 80 -56 27 -142 68 -192 91 -562 264
-1563 763 -2110 1050 -156 82 -268 141 -342 181 -40 22 -108 58 -150 80 -88
47 -177 95 -243 131 -25 14 -90 49 -145 78 -55 29 -117 64 -137 77 -21 13 -39
23 -42 23 -2 0 -77 41 -167 91 -183 102 -218 121 -304 169 -33 18 -72 41 -87
51 -14 11 -28 19 -31 19 -2 0 -56 30 -118 66 -63 36 -136 78 -164 94 -71 40
-414 243 -515 304 -47 29 -92 55 -100 59 -8 4 -22 11 -30 17 -8 5 -134 83
-280 173 -322 199 -492 306 -630 397 -58 38 -112 73 -120 77 -17 8 -575 382
-693 464 -546 380 -1182 860 -1544 1167 -868 735 -1311 1200 -2064 2167 -68
88 -153 198 -189 246 -441 586 -777 1051 -1137 1579 -125 184 -422 626 -438
652 -5 9 -43 67 -83 130 -260 400 -545 852 -722 1143 -56 94 -111 182 -121
197 -11 15 -19 30 -19 33 0 3 -22 40 -48 83 -47 75 -300 502 -343 579 -12 21
-63 110 -114 198 -84 147 -351 627 -455 820 -23 44 -55 103 -70 130 -25 46
-48 90 -185 350 -153 291 -562 1115 -655 1320 -18 39 -49 106 -70 150 -21 44
-49 105 -63 135 -13 30 -40 89 -60 130 -55 118 -90 195 -151 335 -32 72 -65
148 -75 170 -11 22 -54 123 -96 225 -43 102 -86 203 -95 225 -10 22 -43 103
-75 180 -31 77 -60 149 -65 160 -5 11 -39 97 -75 190 -37 94 -77 197 -90 230
-29 74 -148 395 -182 490 -13 39 -29 81 -35 95 -6 14 -14 36 -18 50 -5 14 -38
111 -75 215 -37 105 -70 204 -75 220 -4 17 -34 107 -65 200 -55 164 -97 298
-116 360 -13 46 -33 116 -82 280 -98 331 -122 417 -216 790 -47 181 -120 489
-141 590 -5 22 -22 105 -40 185 -17 80 -35 168 -40 195 -5 28 -18 100 -29 160
-28 146 -50 266 -61 340 -5 33 -16 101 -25 150 -8 50 -19 122 -25 160 -5 39
-14 99 -19 135 -10 63 -40 307 -61 495 -11 101 -34 368 -49 585 -6 80 -16 303
-22 496 -15 462 -1 897 42 1369 6 66 15 163 19 215 5 52 16 163 25 245 8 83
20 195 25 250 5 55 14 138 20 185 5 47 14 126 20 175 20 186 41 362 50 435 5
41 16 134 25 205 17 143 40 322 55 430 5 39 16 122 25 185 9 63 20 144 25 180
5 36 16 110 24 165 28 189 46 310 77 500 16 105 34 217 38 250 5 33 14 87 19
120 6 33 16 92 22 130 6 39 18 106 26 150 8 44 19 105 24 135 32 185 67 380
80 445 5 28 16 86 25 130 8 44 36 184 61 310 26 127 50 248 54 270 9 49 54
264 75 360 31 141 44 201 50 230 4 17 13 59 21 95 9 36 19 83 24 105 13 61 71
307 114 488 70 290 181 724 245 962 11 39 31 115 45 170 15 55 31 111 35 125
5 14 21 70 36 125 33 122 46 165 79 275 14 47 46 153 70 235 24 83 56 188 71
235 15 47 31 99 35 115 31 112 278 869 300 920 4 11 11 29 14 40 2 11 11 38
20 60 8 22 35 101 61 175 41 120 56 163 85 235 5 11 27 72 50 135 76 210 231
619 260 685 4 11 22 56 40 100 17 44 35 89 40 100 4 11 56 137 116 280 107
259 207 493 309 720 14 33 37 83 50 110 13 28 34 75 48 105 33 73 97 210 155
335 70 149 469 942 544 1080 35 66 85 158 110 205 25 47 55 103 68 125 21 38
135 241 187 332 13 24 64 111 113 194 50 83 90 153 90 155 0 5 217 357 353
574 102 162 421 645 520 785 168 241 376 530 456 635 195 257 259 339 390 505
138 174 396 488 460 560 20 23 59 67 86 100 116 137 262 299 540 600 141 152
639 654 800 806 279 262 410 381 651 590 166 144 499 419 683 564 464 365
1060 787 1516 1074 39 24 93 58 120 76 43 28 103 65 163 100 10 6 62 38 117
71 97 60 275 164 280 164 2 0 60 34 130 75 69 41 128 75 131 75 2 0 79 42 171
93 93 52 209 115 258 142 50 26 119 64 155 83 36 19 83 45 105 57 22 12 75 41
118 64 42 22 110 58 150 80 39 21 117 62 172 91 55 29 132 69 170 90 70 37
190 100 400 210 105 55 209 110 430 225 55 29 159 83 230 120 72 37 180 93
240 125 61 32 196 101 300 155 105 54 258 132 340 175 83 43 227 117 320 165
94 48 238 122 320 165 152 79 381 196 805 413 129 66 314 160 410 210 96 49
283 145 415 212 522 266 829 422 1020 520 218 112 596 304 1140 580 193 98
458 233 590 300 132 67 402 204 600 305 338 172 486 247 1180 600 153 78 286
146 295 150 8 4 24 12 36 18 12 5 135 69 275 140 140 71 373 190 519 264 798
407 1315 670 1590 811 129 66 363 185 520 265 157 79 373 190 480 245 107 55
287 147 400 204 113 58 282 145 375 193 94 48 260 134 370 190 110 56 268 137
350 180 83 43 231 119 330 170 310 159 522 269 850 440 61 31 173 90 250 130
77 40 172 89 210 110 39 21 129 68 200 105 72 37 167 87 213 111 130 70 239
127 347 184 55 29 132 69 170 90 39 20 106 56 150 80 44 23 107 57 140 75 33
18 101 54 150 80 50 26 104 56 120 65 17 10 66 37 110 60 44 24 141 77 215
118 74 41 160 88 190 105 30 16 69 38 85 47 17 10 46 27 65 37 82 46 233 135
334 196 59 37 110 67 112 67 6 0 129 89 280 202 132 100 374 266 439 302 17 9
46 26 65 38 73 44 235 120 304 143 97 31 103 33 167 34 43 1 63 -4 83 -20z"/>
</g>
</svg>
