<?xml version="1.0" standalone="no"?>
<!DOCTYPE svg PUBLIC "-//W3C//DTD SVG 20010904//EN"
 "http://www.w3.org/TR/2001/REC-SVG-20010904/DTD/svg10.dtd">
<svg version="1.0" xmlns="http://www.w3.org/2000/svg"
 width="512.000000pt" height="162.000000pt" viewBox="0 0 512.000000 162.000000"
 preserveAspectRatio="xMidYMid meet">

<g transform="translate(0.000000,162.000000) scale(0.100000,-0.100000)"
fill="currentColor" stroke="none">
<path d="M682 1310 c-179 -47 -311 -165 -374 -335 -31 -86 -31 -264 0 -348 43
-116 145 -228 259 -286 71 -36 151 -51 263 -51 176 0 286 40 396 142 35 33 64
65 64 72 0 6 -22 25 -49 43 l-48 31 -49 -49 c-94 -96 -243 -143 -380 -120
-145 25 -255 107 -317 239 -29 61 -32 76 -32 162 0 86 3 101 32 162 19 40 53
89 83 118 29 30 78 64 118 83 64 30 73 32 187 32 114 0 123 -2 188 -32 37 -18
91 -55 121 -83 l54 -51 46 28 c25 15 46 34 46 41 0 8 -26 39 -57 71 -130 130
-353 183 -551 131z"/>
<path d="M1993 1316 c-89 -22 -164 -65 -234 -136 -77 -78 -122 -161 -144 -265
-18 -88 -18 -132 0 -220 39 -187 184 -345 359 -391 60 -16 222 -18 285 -3 170
39 319 194 367 382 21 82 15 220 -15 302 -59 166 -216 305 -380 335 -71 13
-173 11 -238 -4z m288 -149 c77 -37 155 -117 193 -197 28 -59 31 -74 31 -165
0 -92 -3 -106 -32 -167 -67 -142 -178 -218 -328 -226 -214 -11 -377 128 -410
348 -25 169 103 373 268 426 26 8 77 13 132 11 75 -2 99 -7 146 -30z"/>
<path d="M3294 1301 c-121 -61 -244 -240 -265 -385 -5 -34 -9 -184 -9 -333 l0
-273 59 0 58 0 6 298 c3 163 11 320 16 347 6 28 25 79 43 115 26 50 45 73 83
98 46 31 55 33 113 30 l63 -3 30 52 31 53 -29 11 c-15 7 -53 14 -83 16 -47 4
-64 0 -116 -26z"/>
<path d="M4090 1319 c-175 -34 -341 -204 -381 -389 -16 -75 -7 -253 16 -310
29 -70 91 -164 138 -207 98 -90 192 -123 353 -123 152 0 266 42 362 133 33 32
118 155 111 161 -2 2 -27 15 -55 29 l-50 25 -48 -64 c-85 -114 -191 -168 -336
-168 -72 0 -94 4 -145 28 -121 55 -211 179 -222 307 l-6 59 447 0 446 0 0 43
c0 57 -24 149 -57 217 -33 69 -141 179 -210 214 -100 50 -244 68 -363 45z
m189 -119 c143 -27 253 -127 296 -267 l6 -23 -371 0 -371 0 7 23 c18 57 66
137 107 174 53 49 88 68 159 87 65 18 100 19 167 6z"/>
</g>
</svg>
