<?xml version="1.0" standalone="no"?>
<!DOCTYPE svg PUBLIC "-//W3C//DTD SVG 20010904//EN"
 "http://www.w3.org/TR/2001/REC-SVG-20010904/DTD/svg10.dtd">
<svg version="1.0" xmlns="http://www.w3.org/2000/svg"
 width="1890.000000pt" height="1417.000000pt" viewBox="0 0 1890.000000 1417.000000"
 preserveAspectRatio="xMidYMid meet">

<g transform="translate(0.000000,1417.000000) scale(0.100000,-0.100000)"
fill="currentColor" stroke="none">
<path d="M9895 12588 c-49 -4 -178 -15 -285 -24 -107 -10 -251 -21 -320 -25
-114 -6 -279 -34 -322 -53 -10 -5 -24 -6 -32 -3 -22 9 -115 -9 -176 -32 -30
-12 -72 -21 -93 -21 -21 0 -59 -8 -85 -19 -75 -29 -116 -41 -146 -41 -15 0
-42 -7 -59 -16 -61 -32 -67 -34 -98 -34 -17 0 -48 -8 -68 -19 -41 -21 -100
-41 -122 -41 -8 0 -25 -6 -39 -13 -14 -7 -47 -21 -75 -31 -27 -10 -68 -27 -91
-37 -22 -10 -44 -19 -48 -19 -7 0 -65 -25 -181 -80 -33 -15 -76 -35 -95 -44
-19 -9 -42 -20 -50 -25 -8 -5 -31 -16 -50 -24 -19 -9 -48 -24 -65 -33 -16 -9
-39 -21 -50 -27 -60 -30 -107 -57 -133 -76 -17 -11 -34 -21 -40 -21 -5 0 -27
-12 -48 -28 -21 -15 -55 -35 -74 -45 -55 -27 -103 -57 -126 -78 -11 -10 -25
-19 -31 -19 -6 0 -17 -7 -24 -16 -7 -9 -36 -31 -64 -48 -27 -18 -69 -48 -92
-67 -52 -43 -165 -127 -210 -157 -18 -12 -51 -41 -72 -62 -21 -22 -44 -40 -50
-40 -6 0 -14 -6 -17 -14 -3 -8 -40 -44 -82 -80 -199 -169 -288 -266 -659 -715
-15 -19 -30 -39 -33 -45 -3 -6 -23 -37 -45 -70 -22 -32 -48 -70 -57 -85 -9
-14 -20 -30 -25 -36 -29 -36 -143 -213 -143 -222 0 -7 -13 -27 -30 -45 -16
-18 -30 -40 -30 -49 0 -9 -14 -33 -30 -54 -16 -21 -30 -43 -30 -50 0 -7 -13
-32 -30 -56 -16 -24 -30 -51 -30 -60 0 -9 -9 -28 -20 -42 -11 -14 -27 -44 -35
-67 -8 -23 -24 -54 -35 -70 -11 -15 -20 -35 -20 -44 0 -9 -13 -43 -30 -76 -16
-33 -30 -67 -30 -76 0 -8 -14 -46 -30 -84 -17 -38 -30 -76 -30 -86 0 -9 -14
-46 -30 -81 -17 -34 -30 -70 -30 -79 0 -9 -13 -53 -29 -99 -17 -46 -30 -96
-29 -111 0 -16 -12 -64 -26 -106 -14 -42 -26 -89 -26 -103 0 -15 -13 -66 -29
-114 -15 -47 -31 -117 -35 -156 -8 -100 -12 -120 -22 -136 -11 -18 -20 -94
-35 -289 -7 -85 -17 -158 -22 -161 -20 -14 -29 -215 -24 -545 3 -226 8 -348
16 -362 6 -12 16 -81 22 -154 6 -73 13 -143 15 -155 l4 -23 1589 0 c1440 0
1589 -1 1595 -16 3 -9 6 -35 6 -59 0 -24 5 -56 11 -72 18 -48 49 -167 49 -193
0 -14 6 -35 14 -46 8 -11 22 -47 31 -79 9 -33 28 -83 41 -112 13 -28 24 -56
24 -61 0 -16 111 -234 136 -269 13 -17 24 -35 24 -40 0 -28 173 -253 274 -355
74 -76 127 -122 302 -263 18 -14 35 -25 40 -25 4 0 17 -8 28 -18 29 -26 145
-92 160 -92 8 0 19 -6 25 -13 6 -8 30 -22 53 -32 24 -10 66 -28 93 -41 98 -44
210 -84 237 -84 15 0 39 -5 55 -11 57 -22 130 -37 218 -43 50 -4 123 -14 163
-22 77 -16 290 -18 328 -4 12 5 68 13 125 19 127 14 203 28 247 47 18 8 47 14
65 14 37 0 108 21 152 44 17 9 41 16 54 16 13 0 44 11 70 24 25 13 65 29 89
36 23 8 47 19 53 27 6 7 17 13 23 13 11 0 35 12 136 67 78 43 104 58 163 98
32 22 73 48 90 57 17 10 41 29 54 43 13 14 28 25 33 25 4 0 22 12 38 28 16 15
46 41 68 59 86 71 273 267 358 377 130 169 146 191 146 208 0 15 -35 46 -138
123 -15 11 -37 30 -50 43 -12 12 -26 22 -30 22 -4 0 -28 19 -52 43 -25 23 -72
63 -105 87 -33 24 -90 70 -127 102 -36 32 -73 58 -81 58 -8 0 -20 -14 -27 -31
-19 -45 -126 -204 -195 -290 -97 -120 -294 -311 -375 -365 -83 -54 -112 -71
-185 -108 -27 -15 -66 -35 -85 -46 -19 -11 -40 -20 -47 -20 -6 0 -27 -9 -46
-20 -19 -11 -56 -27 -83 -34 -27 -8 -74 -23 -104 -35 -30 -11 -78 -21 -106
-21 -27 0 -74 -7 -104 -16 -61 -18 -289 -22 -333 -5 -14 6 -61 13 -104 17
-101 9 -89 6 -178 44 -22 10 -56 20 -76 24 -21 4 -48 15 -62 26 -14 11 -32 20
-40 20 -8 0 -31 14 -52 30 -21 17 -42 30 -48 30 -6 0 -24 11 -41 24 -17 12
-45 30 -62 39 -48 25 -227 200 -302 296 -78 101 -132 176 -132 186 0 4 -13 27
-30 52 -16 24 -30 49 -30 56 0 7 -14 36 -30 66 -17 30 -30 61 -30 70 0 20 -26
94 -45 132 -8 15 -15 52 -15 82 0 30 -4 67 -9 83 -5 16 -12 52 -15 79 -3 28
-10 66 -16 85 -6 19 -14 136 -17 260 l-6 225 -1371 -1 c-754 -1 -1461 -4
-1571 -8 -130 -5 -209 -4 -227 3 l-26 10 4 158 c9 331 15 459 24 478 9 21 16
68 30 210 10 99 21 161 44 245 9 30 16 70 16 89 0 33 8 65 32 136 6 17 16 57
23 90 16 71 29 115 43 141 5 10 12 33 15 51 7 43 27 104 43 128 7 11 15 36 17
57 2 20 16 57 31 81 14 25 26 54 26 65 0 10 13 46 30 78 16 32 30 68 30 79 0
11 14 38 30 59 17 22 30 47 30 56 0 9 13 37 30 61 16 24 30 53 30 65 0 11 9
29 20 39 12 10 30 39 41 64 11 25 42 82 69 127 28 46 50 88 50 94 0 5 4 10 10
10 5 0 19 19 31 43 12 23 29 51 39 62 21 23 90 125 90 132 0 3 15 23 33 44 17
21 46 56 62 79 122 167 433 493 595 623 122 98 138 110 179 144 37 29 110 80
276 189 55 37 116 77 136 90 19 13 38 24 42 24 4 0 26 12 50 27 54 35 92 57
142 82 22 11 56 29 75 39 19 11 51 27 70 36 19 9 69 34 110 56 41 22 87 42
102 45 15 4 43 17 63 31 20 13 42 24 50 24 8 0 44 14 78 30 35 17 70 30 78 30
8 0 46 13 84 30 39 16 84 30 102 30 17 0 35 5 38 10 3 6 14 10 24 10 10 0 24
7 31 15 7 9 29 15 51 15 21 0 72 14 114 30 42 17 90 30 107 30 17 0 45 4 62 9
17 5 58 18 91 28 33 10 89 18 125 19 36 0 81 6 100 12 104 32 174 37 675 42
464 5 558 2 635 -14 131 -29 236 -46 248 -41 13 5 43 -3 178 -45 17 -6 55 -10
85 -10 30 0 59 -4 65 -9 13 -14 125 -51 151 -51 12 0 40 -9 60 -20 21 -11 61
-24 88 -30 28 -5 73 -21 100 -34 28 -14 60 -26 73 -26 12 0 46 -13 75 -30 30
-16 61 -30 71 -30 9 0 34 -11 54 -25 20 -14 43 -25 50 -25 17 0 276 -125 314
-152 14 -10 32 -18 39 -18 7 0 20 -7 30 -16 9 -8 41 -28 71 -44 118 -65 131
-72 142 -82 6 -5 56 -38 111 -73 108 -68 163 -107 201 -142 14 -13 27 -23 30
-23 6 0 67 -50 153 -125 31 -27 86 -75 121 -105 69 -60 386 -375 392 -389 2
-5 29 -38 60 -72 63 -71 129 -152 174 -215 16 -23 50 -69 77 -103 26 -34 47
-65 47 -70 0 -4 9 -16 21 -27 12 -10 30 -35 40 -54 11 -19 35 -55 54 -80 19
-25 43 -60 52 -77 9 -18 24 -33 33 -33 9 0 42 18 73 40 30 22 60 40 64 40 5 0
20 11 33 25 13 14 29 25 36 25 6 0 17 7 24 15 7 9 31 28 54 44 23 15 63 43 90
62 26 19 58 41 71 49 29 19 69 49 103 77 l27 21 -22 24 c-13 13 -23 28 -23 34
0 5 -16 26 -35 46 -19 20 -35 43 -35 51 0 7 -11 24 -25 37 -14 13 -25 29 -25
35 0 7 -10 20 -21 31 -12 10 -42 51 -68 89 -53 81 -94 135 -133 177 -16 16
-28 32 -28 36 -1 11 -187 214 -350 380 -159 163 -517 482 -540 482 -6 0 -13 6
-16 14 -4 11 -53 47 -122 91 -9 6 -46 33 -83 60 -36 28 -106 75 -154 105 -48
30 -110 70 -137 88 -28 17 -56 32 -63 32 -8 0 -17 5 -20 11 -4 6 -32 23 -63
39 -32 16 -82 42 -112 58 -30 16 -71 37 -90 46 -19 10 -42 21 -50 26 -8 6 -35
19 -60 31 -25 12 -85 40 -135 64 -49 24 -108 49 -130 56 -22 7 -51 21 -64 31
-13 10 -32 18 -43 18 -10 0 -35 8 -56 17 -54 24 -186 71 -267 94 -38 11 -80
27 -92 35 -12 8 -42 14 -67 14 -25 0 -48 5 -51 10 -3 6 -14 10 -23 10 -9 1
-35 9 -57 20 -22 11 -58 19 -79 20 -40 0 -57 4 -156 35 -30 10 -84 19 -120 21
-72 3 -199 25 -256 44 -22 8 -70 11 -123 8 -56 -3 -97 0 -116 8 -16 6 -127 19
-245 28 -118 9 -219 18 -225 19 -5 2 -50 0 -100 -5z m-3405 -2014 c0 -8 -5
-12 -10 -9 -6 4 -8 11 -5 16 9 14 15 11 15 -7z"/>
<path d="M9635 11108 c-71 -4 -164 -14 -205 -23 -41 -8 -111 -19 -155 -25 -44
-5 -98 -15 -120 -21 -22 -6 -63 -15 -90 -20 -28 -5 -78 -18 -110 -30 -33 -11
-81 -24 -106 -29 -26 -5 -76 -20 -111 -34 -36 -14 -69 -26 -75 -26 -17 0 -225
-94 -350 -158 -10 -5 -31 -16 -48 -23 -16 -7 -42 -21 -57 -31 -14 -10 -31 -18
-38 -18 -7 0 -26 -10 -43 -22 -18 -13 -48 -31 -67 -40 -42 -21 -150 -88 -205
-129 -22 -16 -78 -57 -125 -91 -236 -172 -568 -493 -680 -657 -13 -20 -46 -62
-72 -93 -26 -31 -48 -61 -48 -67 0 -6 -13 -26 -30 -44 -16 -19 -30 -38 -30
-42 0 -4 -21 -39 -47 -78 -63 -95 -193 -342 -193 -366 0 -5 -7 -14 -14 -21 -8
-6 -22 -35 -32 -63 -9 -29 -22 -59 -29 -67 -7 -8 -18 -35 -25 -60 -7 -25 -20
-61 -30 -80 -10 -19 -26 -62 -36 -95 -9 -33 -23 -67 -30 -75 -7 -8 -17 -40
-22 -70 -6 -30 -22 -80 -36 -110 -14 -30 -26 -71 -26 -90 0 -34 -20 -103 -41
-142 -5 -10 -12 -41 -15 -70 -3 -28 -16 -86 -29 -127 -13 -42 -26 -106 -29
-143 -3 -38 -9 -76 -14 -85 -5 -10 -12 -35 -16 -55 l-7 -38 1190 0 1191 0 5
28 c3 15 10 46 15 70 6 23 10 57 10 75 0 17 9 50 18 72 10 22 24 63 31 90 7
28 23 73 37 100 13 28 31 66 39 85 26 62 131 226 159 249 9 7 16 18 16 23 0
14 186 194 252 245 54 42 265 153 290 153 14 0 117 34 153 50 51 23 356 35
495 20 246 -26 541 -166 747 -355 113 -103 383 -423 383 -454 0 -4 13 -25 30
-46 16 -20 32 -46 35 -56 4 -11 17 -31 31 -46 13 -14 24 -31 24 -38 0 -7 9
-24 20 -37 19 -25 42 -64 95 -160 14 -27 32 -48 41 -48 8 0 57 33 107 73 51
40 110 87 132 103 21 16 46 35 55 42 33 28 161 129 204 162 26 19 78 60 116
90 38 30 124 98 191 150 68 52 160 124 206 160 45 36 103 81 129 100 75 57
202 157 293 231 31 25 72 56 91 69 49 34 58 41 92 73 16 15 33 27 36 27 4 1
31 22 60 49 52 46 53 48 40 77 -7 16 -25 47 -40 68 -16 21 -28 43 -28 47 0 5
-24 44 -52 87 -29 43 -69 104 -88 136 -47 76 -212 298 -269 362 -25 29 -71 80
-101 114 -111 126 -267 272 -451 420 -24 19 -77 63 -119 98 -64 54 -116 91
-225 159 -11 7 -38 22 -60 34 -22 12 -54 32 -72 45 -17 13 -38 24 -47 24 -8 0
-21 6 -28 14 -8 7 -41 27 -74 43 -32 16 -68 34 -79 40 -110 54 -152 74 -162
73 -6 0 -34 12 -62 26 -29 14 -68 28 -89 31 -20 4 -53 14 -72 24 -19 10 -64
25 -100 33 -36 8 -90 23 -120 32 -30 9 -84 22 -120 30 -36 7 -92 19 -125 28
-33 8 -105 19 -160 25 -55 6 -113 15 -130 20 -76 23 -489 33 -750 19z m545
-677 c157 -13 285 -30 345 -46 61 -17 127 -32 179 -40 21 -4 46 -10 55 -15 34
-18 102 -40 124 -40 12 0 32 -6 43 -14 11 -8 44 -22 74 -31 53 -17 73 -25 225
-94 84 -39 105 -50 215 -113 128 -75 163 -96 185 -112 11 -8 58 -43 105 -78
47 -34 162 -140 255 -234 182 -185 213 -220 270 -304 20 -30 45 -64 56 -75 25
-28 35 -79 17 -94 -43 -37 -146 -115 -163 -124 -11 -5 -60 -42 -110 -81 -49
-39 -100 -78 -111 -86 -12 -8 -70 -50 -128 -92 -58 -43 -112 -78 -119 -78 -8
0 -49 39 -92 88 -79 87 -240 248 -330 330 -88 79 -425 302 -456 302 -6 0 -29
11 -52 24 -23 13 -57 27 -75 31 -18 4 -52 18 -75 31 -23 13 -55 24 -70 24 -16
0 -43 6 -60 14 -59 26 -102 37 -177 46 -41 5 -104 14 -140 19 -83 13 -394 13
-485 0 -38 -5 -106 -14 -150 -19 -79 -8 -121 -19 -182 -46 -17 -8 -44 -14 -60
-14 -15 0 -55 -14 -87 -30 -32 -17 -67 -30 -76 -30 -9 0 -34 -11 -54 -25 -20
-14 -43 -25 -52 -25 -8 0 -33 -13 -56 -30 -22 -16 -45 -30 -49 -30 -11 0 -111
-60 -124 -74 -5 -6 -35 -29 -65 -50 -106 -76 -233 -192 -319 -292 -108 -127
-116 -136 -137 -171 -10 -15 -28 -39 -40 -53 -12 -14 -25 -35 -29 -47 -3 -13
-11 -23 -16 -23 -6 0 -20 -21 -32 -47 -12 -27 -35 -66 -50 -88 -15 -22 -27
-46 -27 -53 0 -15 -37 -72 -55 -84 -5 -4 -209 -8 -453 -8 -398 0 -443 2 -449
16 -3 9 1 29 11 44 9 16 16 37 16 49 0 11 13 49 29 83 17 35 32 75 35 89 3 14
17 42 31 63 14 20 25 44 25 53 0 9 14 38 30 65 17 26 30 53 30 58 0 5 14 29
30 53 17 25 30 49 30 53 0 4 10 24 23 43 13 20 43 65 66 101 141 218 442 554
616 688 125 96 126 97 220 160 102 68 183 113 305 173 47 23 105 52 130 64 25
13 56 26 70 30 14 4 48 18 75 30 28 12 72 28 100 34 27 7 63 18 80 26 27 13
76 24 190 44 22 4 50 13 62 19 12 7 46 12 75 12 29 1 89 7 133 15 44 8 114 15
155 16 41 1 104 5 140 9 69 9 163 6 350 -9z"/>
<path d="M4795 5900 c-22 -4 -31 -12 -33 -29 -2 -13 1 -28 7 -34 6 -6 11 -25
11 -41 0 -17 14 -62 30 -101 17 -38 30 -82 30 -98 0 -16 6 -43 14 -60 31 -70
46 -119 46 -147 0 -16 12 -60 26 -97 14 -37 29 -81 34 -98 4 -16 20 -54 34
-82 14 -29 26 -60 26 -69 0 -9 8 -31 19 -48 10 -17 24 -49 31 -71 12 -39 63
-155 81 -185 5 -8 16 -31 25 -50 9 -19 22 -46 30 -60 7 -14 23 -45 34 -70 11
-25 25 -52 30 -60 6 -8 22 -37 35 -65 36 -72 84 -152 145 -240 12 -16 41 -59
65 -95 24 -36 61 -89 82 -119 21 -30 45 -64 53 -77 8 -12 24 -33 35 -48 11
-14 41 -54 68 -89 26 -34 59 -79 73 -100 13 -21 32 -46 42 -57 9 -10 31 -37
47 -60 122 -168 417 -484 601 -645 137 -119 275 -231 340 -275 20 -14 49 -37
65 -52 15 -16 30 -28 34 -28 5 0 56 -32 159 -102 36 -24 298 -179 317 -188 13
-6 51 -26 84 -45 33 -19 76 -42 95 -51 19 -9 44 -21 55 -27 11 -6 31 -16 45
-23 14 -6 53 -26 86 -43 34 -17 68 -31 76 -31 8 0 29 -11 48 -25 19 -14 43
-25 53 -25 11 0 47 -13 81 -29 113 -54 208 -91 235 -91 15 0 31 -4 37 -9 13
-13 124 -51 149 -51 12 0 25 -3 29 -7 9 -10 78 -32 131 -43 22 -5 65 -17 95
-28 30 -10 81 -22 112 -26 32 -3 77 -13 101 -21 24 -8 80 -19 123 -25 43 -5
142 -21 219 -34 374 -66 849 -78 1285 -34 146 15 277 31 292 37 15 6 67 15
115 21 83 10 241 42 378 76 33 9 99 24 147 34 47 10 101 25 120 33 18 8 56 19
83 26 28 7 67 21 88 31 21 11 48 20 61 20 13 0 51 14 84 30 34 16 65 30 71 30
5 0 38 13 73 29 35 16 80 34 100 40 20 7 42 19 48 27 7 7 19 14 27 14 9 0 41
13 72 29 31 16 67 34 81 41 14 6 48 23 75 38 28 15 64 35 80 44 17 9 37 19 45
23 8 3 24 11 35 18 11 7 43 25 70 41 28 16 97 59 155 96 58 37 112 70 120 73
8 4 35 22 60 41 25 19 77 56 115 82 75 52 202 153 374 299 109 92 445 422 542
531 94 107 102 117 184 219 44 54 96 115 115 134 19 19 40 43 45 52 6 9 34 48
63 85 28 38 52 76 52 85 0 10 -48 55 -113 106 -123 96 -247 195 -358 286 -39
31 -83 60 -97 64 -29 7 -27 9 -103 -107 -27 -41 -74 -106 -104 -145 -31 -38
-87 -111 -125 -160 -38 -50 -84 -109 -102 -130 -69 -82 -507 -512 -566 -555
-34 -24 -62 -48 -62 -51 0 -4 -35 -34 -77 -66 -116 -87 -135 -101 -166 -118
-16 -9 -49 -32 -74 -51 -26 -20 -68 -46 -95 -60 -26 -13 -48 -28 -48 -32 0 -4
-21 -18 -47 -31 -27 -12 -70 -38 -98 -56 -27 -18 -70 -42 -95 -54 -25 -11 -72
-37 -105 -56 -33 -19 -67 -37 -75 -40 -8 -3 -42 -18 -75 -34 -149 -69 -174
-80 -233 -101 -34 -12 -65 -27 -68 -31 -3 -5 -16 -9 -29 -9 -13 0 -53 -13 -88
-30 -36 -17 -77 -30 -91 -30 -14 0 -51 -11 -82 -25 -31 -14 -66 -25 -77 -25
-24 0 -118 -26 -165 -46 -18 -8 -47 -14 -65 -14 -33 0 -146 -23 -206 -41 -31
-10 -69 -15 -336 -39 -60 -6 -146 -15 -190 -20 -108 -12 -387 -12 -510 1 -55
5 -152 14 -215 19 -256 21 -329 28 -361 38 -61 19 -183 42 -219 42 -20 0 -44
6 -55 14 -11 7 -36 16 -55 19 -74 12 -167 36 -218 56 -29 12 -61 21 -73 21
-11 0 -45 11 -76 26 -31 14 -70 28 -87 31 -17 3 -51 16 -76 28 -25 12 -58 25
-75 29 -16 4 -59 21 -95 37 -36 17 -83 39 -105 49 -205 93 -339 164 -475 254
-52 35 -129 85 -170 112 -85 55 -205 143 -235 171 -11 11 -69 62 -130 114
-206 177 -442 410 -543 536 -12 15 -48 60 -80 99 -94 118 -115 146 -164 219
-25 39 -53 77 -62 84 -9 7 -16 18 -16 23 0 6 -13 30 -30 55 -16 24 -30 46 -30
47 0 2 -18 33 -40 67 -22 35 -50 84 -63 109 -12 25 -32 59 -43 75 -12 17 -25
41 -29 55 -4 14 -17 39 -30 55 -12 17 -26 41 -30 55 -4 14 -16 37 -27 52 -10
15 -24 42 -30 60 -6 18 -20 45 -30 60 -10 15 -24 42 -30 60 -6 17 -22 48 -35
67 -17 24 -23 46 -21 71 l3 35 405 3 c223 1 415 0 427 -3 14 -3 30 -22 42 -48
12 -23 36 -69 55 -102 19 -33 42 -73 50 -90 8 -16 23 -41 34 -55 10 -14 23
-36 27 -50 4 -14 21 -41 36 -61 16 -20 29 -41 29 -45 0 -5 14 -27 30 -48 17
-22 30 -44 30 -49 0 -5 12 -24 28 -43 15 -18 41 -51 57 -74 17 -22 53 -69 81
-103 27 -34 57 -73 66 -85 42 -62 308 -340 383 -401 17 -13 64 -53 105 -88
106 -91 117 -100 132 -107 7 -3 38 -24 68 -46 61 -45 151 -106 191 -130 15 -8
45 -27 68 -43 22 -15 67 -41 98 -58 32 -17 67 -38 78 -45 11 -8 25 -14 32 -14
8 0 30 -10 51 -23 50 -31 303 -147 322 -147 8 -1 33 -12 55 -25 22 -14 49 -25
60 -25 11 0 51 -14 90 -30 38 -17 81 -30 95 -30 14 0 37 -6 52 -14 30 -16 108
-35 188 -47 57 -8 119 -21 205 -44 28 -7 77 -14 110 -15 32 0 109 -7 170 -15
127 -17 541 -20 626 -5 30 5 107 14 171 19 65 6 135 14 155 20 21 5 74 16 118
25 44 9 116 26 160 37 44 11 109 27 145 35 35 8 83 23 106 34 23 10 57 21 75
25 19 4 56 18 82 31 27 13 58 24 70 24 12 1 47 14 77 30 30 17 61 30 68 30 11
0 75 29 153 70 248 129 286 151 429 248 108 72 163 112 205 146 22 18 63 50
90 70 76 57 399 355 439 405 6 7 22 25 36 40 57 59 248 289 285 345 11 16 31
46 45 66 14 21 44 63 68 93 23 31 42 62 42 69 0 8 -15 22 -32 33 -18 10 -49
31 -68 47 -19 15 -40 28 -46 28 -6 0 -17 6 -23 13 -6 8 -48 39 -93 70 -46 31
-102 70 -125 87 -24 16 -57 37 -75 46 -18 9 -53 32 -77 51 -24 18 -47 33 -50
33 -4 0 -31 -35 -60 -77 -86 -127 -98 -143 -179 -237 -42 -49 -84 -100 -92
-112 -44 -64 -183 -210 -317 -332 -94 -87 -89 -82 -180 -153 -151 -118 -218
-165 -288 -204 -39 -21 -77 -44 -85 -51 -28 -23 -341 -175 -390 -189 -14 -4
-46 -18 -72 -31 -26 -13 -56 -24 -66 -24 -11 0 -46 -12 -78 -26 -33 -14 -81
-30 -109 -34 -27 -4 -75 -15 -105 -25 -54 -16 -101 -24 -370 -65 -148 -22
-462 -27 -555 -9 -27 5 -84 14 -125 19 -147 18 -266 38 -320 55 -30 9 -75 21
-100 25 -25 5 -74 20 -109 34 -36 14 -70 26 -77 26 -7 0 -42 14 -79 30 -37 17
-73 30 -81 30 -8 0 -35 11 -62 24 -26 13 -78 39 -117 57 -144 69 -339 179
-377 213 -9 8 -27 20 -39 27 -19 10 -154 110 -206 152 -89 73 -383 360 -383
375 0 5 -11 19 -25 32 -14 14 -45 51 -68 84 -23 32 -52 69 -64 81 -13 12 -23
27 -23 32 0 5 -16 32 -35 59 -19 27 -35 54 -35 60 0 6 -11 21 -25 34 -14 13
-25 29 -25 35 0 7 -13 31 -30 53 -16 23 -30 47 -30 54 0 6 -13 35 -30 65 -16
29 -30 57 -30 63 0 5 -13 32 -30 58 -16 27 -30 56 -30 65 0 8 -13 44 -30 79
-16 34 -30 71 -30 81 0 10 -10 37 -22 60 -12 23 -27 60 -33 82 l-12 40 -179 7
c-206 8 -2124 7 -2169 -2z"/>
</g>
</svg>