<?xml version="1.0" standalone="no"?>
<!DOCTYPE svg PUBLIC "-//W3C//DTD SVG 20010904//EN"
 "http://www.w3.org/TR/2001/REC-SVG-20010904/DTD/svg10.dtd">
<svg version="1.0" xmlns="http://www.w3.org/2000/svg"
 width="1452.000000pt" height="548.000000pt" viewBox="0 0 1452.000000 548.000000"
 preserveAspectRatio="xMidYMid meet">

<g transform="translate(0.000000,548.000000) scale(0.100000,-0.100000)"
fill="currentColor" stroke="none">
<path d="M10105 3560 c-907 -1055 -1653 -1918 -1656 -1917 -4 1 -408 488 -899
1082 -491 594 -903 1092 -916 1108 l-23 27 -362 20 c-199 12 -363 19 -365 18
-2 -2 11 -22 29 -44 58 -72 2135 -2442 2147 -2449 7 -4 165 -16 353 -26 327
-19 342 -19 358 -2 125 131 3568 4048 3562 4053 -4 4 -111 14 -238 24 -126 9
-255 19 -285 22 l-55 4 -1650 -1920z"/>
<path d="M13 4843 c-10 -4 -13 -282 -13 -1344 0 -1332 0 -1339 20 -1339 11 -1
103 -1 205 -1 102 0 192 0 200 1 13 0 15 100 15 840 0 477 4 840 9 840 5 0 26
-21 47 -47 22 -27 61 -73 89 -104 27 -30 91 -102 141 -160 133 -153 468 -538
809 -929 165 -189 332 -380 370 -425 39 -45 205 -236 370 -425 165 -189 374
-429 464 -532 l164 -189 56 3 56 3 3 1614 c2 1285 0 1616 -10 1623 -15 9 -359
11 -382 2 -14 -6 -16 -115 -16 -1134 0 -621 -4 -1131 -9 -1134 -4 -3 -41 34
-82 82 -41 48 -137 159 -214 248 -77 88 -223 257 -325 374 -102 117 -237 273
-300 345 -63 72 -198 228 -300 345 -102 117 -234 270 -295 339 -60 70 -238
275 -395 456 -157 181 -349 402 -428 492 l-143 163 -47 -1 c-26 0 -53 -3 -59
-6z"/>
<path d="M9842 2134 c-943 -1147 -1716 -2092 -1718 -2098 -3 -9 71 -15 287
-24 161 -7 293 -11 294 -10 2 2 712 889 1580 1973 867 1084 1581 1970 1586
1970 5 0 423 -466 930 -1035 507 -569 936 -1051 954 -1071 l33 -37 368 -7 368
-8 -20 25 c-52 66 -2237 2376 -2257 2386 -14 6 -148 13 -357 17 l-335 6 -1713
-2087z"/>
<path d="M4719 4016 c-3 -3 -40 -12 -84 -21 -362 -75 -705 -297 -917 -595
-122 -172 -223 -402 -262 -596 -90 -453 0 -877 262 -1234 123 -168 361 -370
541 -459 136 -67 369 -141 448 -141 17 0 35 -5 38 -10 8 -13 425 -14 457 -1
13 5 52 14 88 20 333 60 660 261 892 550 149 185 260 423 298 636 7 39 16 80
21 93 13 32 12 449 -1 457 -5 3 -10 21 -10 38 0 41 -42 206 -74 291 -66 176
-177 351 -311 494 -232 246 -486 388 -817 457 -110 22 -146 25 -344 25 -121 0
-223 -2 -225 -4z m451 -321 c374 -62 713 -311 883 -650 94 -187 122 -313 122
-550 0 -250 -33 -395 -132 -588 -169 -327 -466 -544 -858 -629 -89 -19 -381
-16 -473 5 -242 55 -415 150 -595 326 -215 209 -331 451 -358 746 -53 573 260
1082 787 1282 205 78 394 96 624 58z"/>
</g>
</svg>
